<svg width="49" height="54" viewBox="0 0 49 54" fill="none" xmlns="http://www.w3.org/2000/svg">
<path d="M2 45.9198V43.1748C2 32.5627 8.97652 23.9599 17.5825 23.9599" stroke="#A6A4A4" stroke-width="4" stroke-linecap="round" stroke-linejoin="round"/>
<path d="M32.7282 24.8204C34.1568 22.886 36.6251 22.886 38.0538 24.8204C38.7759 25.7982 39.8137 26.3282 40.8849 26.2665C43.0043 26.1443 44.7498 28.2967 44.6507 30.9102C44.6007 32.2311 45.0305 33.5108 45.8234 34.4012C47.3922 36.163 47.3922 39.2066 45.8234 40.9684C45.0305 41.8588 44.6007 43.1385 44.6507 44.4594C44.7498 47.0729 43.0043 49.2253 40.8849 49.1031C39.8137 49.0414 38.7759 49.5714 38.0538 50.5492C36.6251 52.4836 34.1568 52.4836 32.7282 50.5492C32.006 49.5714 30.9682 49.0414 29.897 49.1031C27.7776 49.2253 26.0321 47.0729 26.1312 44.4594C26.1813 43.1385 25.7514 41.8588 24.9585 40.9684C23.3898 39.2066 23.3898 36.163 24.9585 34.4012C25.7514 33.5108 26.1813 32.2311 26.1312 30.9102C26.0321 28.2967 27.7776 26.1443 29.897 26.2665C30.9682 26.3282 32.006 25.7982 32.7282 24.8204Z" stroke="#A6A4A4" stroke-width="4"/>
<path d="M31.7482 37.6849L34.1769 40.6794L39.0337 34.6904" stroke="#A6A4A4" stroke-width="4" stroke-linecap="round" stroke-linejoin="round"/>
<path d="M17.5825 23.9599C22.5001 23.9599 26.4868 19.0439 26.4868 12.9799C26.4868 6.91589 22.5001 2 17.5825 2C12.6648 2 8.67822 6.91589 8.67822 12.9799C8.67822 19.0439 12.6648 23.9599 17.5825 23.9599Z" stroke="#A6A4A4" stroke-width="4" stroke-linecap="round" stroke-linejoin="round"/>
</svg>
