<svg width="54" height="54" viewBox="0 0 54 54" fill="none" xmlns="http://www.w3.org/2000/svg">
<path d="M27 2C13.1929 2 2 13.1929 2 27C2 40.807 13.1929 52 27 52C40.807 52 52 40.807 52 27C52 13.1929 40.807 2 27 2Z" fill="#B1AFAF" stroke="#1302BE" stroke-width="4" stroke-linecap="round" stroke-linejoin="round"/>
<path d="M7.67749 42.8643C7.67749 42.8643 13.25 35.7501 27 35.7501C40.75 35.7501 46.3227 42.8643 46.3227 42.8643" fill="#B1AFAF"/>
<path d="M7.67749 42.8643C7.67749 42.8643 13.25 35.7501 27 35.7501C40.75 35.7501 46.3227 42.8643 46.3227 42.8643" stroke="#1302BE" stroke-width="4" stroke-linecap="round" stroke-linejoin="round"/>
<path d="M27 26.9999C31.1423 26.9999 34.5 23.6422 34.5 19.4999C34.5 15.3578 31.1423 11.9999 27 11.9999C22.8577 11.9999 19.5 15.3578 19.5 19.4999C19.5 23.6422 22.8577 26.9999 27 26.9999Z" fill="#B1AFAF" stroke="#1302BE" stroke-width="4" stroke-linecap="round" stroke-linejoin="round"/>
</svg>
